<svg xmlns="http://www.w3.org/2000/svg" version="1.1" xmlns:xlink="http://www.w3.org/1999/xlink" xmlns:svgjs="http://svgjs.dev/svgjs" viewBox="0 0 1920 1080"><rect width="1920" height="1080" fill="#ffbdde"></rect><g transform="matrix(7.04171909509728e-17,1.15,-1.15,7.04171909509728e-17,1517.0045623779297,-490.40524673461914)"><path d="M0,-1080C-5.142268977577771,-1025.7284916184842,-16.212075754808176,-895.5193197462447,-30.853613865466627,-754.370949710905C-45.49515197612508,-613.2225796755654,-72.69156855839417,-380.13213458526985,-87.84922866395073,-233.10977978796166C-103.00688876950728,-86.08742499065346,-143.3251602715114,6.805111401764364,-121.79957449880601,127.76317907294413C-100.27398872610061,248.7212467441239,39.68828144402554,341.4865944033936,41.30428597228166,492.6386262391169C42.92029050053778,643.7906580748402,-122.17604366824266,910.8553846887584,-112.1035473292693,1034.6753700872837C-102.03105099029595,1158.495355485809,72.86270063522846,1127.005097196649,101.73926400612174,1235.5585386302687C130.61582737701502,1344.1119800638883,78.11237689711066,1531.922441794046,61.155832896090374,1685.9960186890014C44.19928889507008,1840.0695955839567,10.192638816015062,2080.999336448167,0,2160L 1920 2160 L 1920 -1080 Z" fill="url(&quot;#SvgjsLinearGradient1085&quot;)"></path><path d="M192,-1080C204.20721019508983,-1013.201282058503,252.85343231707054,-826.9623538535973,265.243261170539,-679.2076923510181C277.6330900240074,-531.4530308484389,271.5418209544439,-314.40732314144,266.3389731208106,-193.47203098452457C261.13612528717726,-72.53673882760917,247.347669256604,-55.84217477918456,234.02617416873915,46.40406059047433C220.70467908087429,148.65029596013323,174.1709389279682,276.3134136054738,186.4100025936214,420.00538123342875C198.64906625927463,563.6973488613837,306.9592242267456,756.6052083893296,307.46055616265846,908.555866358204C307.9618880985713,1060.5065243270783,203.32285471102972,1191.6571792062844,189.41799420909865,1331.7093290466746C175.51313370716758,1471.7614788870649,223.60105885258855,1610.8203202416576,224.0313931510721,1748.868765400545C224.46172744955567,1886.9172105594325,197.3385655251787,2091.4781275667574,192,2160L 1920 2160 L 1920 -1080 Z" fill="url(&quot;#SvgjsLinearGradient1086&quot;)"></path><path d="M384,-1080C371.2809358090384,-1003.9623037143446,290.1356831918512,-815.8245224185567,307.68561485423044,-623.7738222860673C325.2355465166097,-431.72312215357795,466.59833479886584,-103.38315165893431,489.2995899742756,72.30420079493643C512.0008451496853,247.99155324880718,471.68732033240553,268.16985216079854,443.8931459066888,430.350292437157C416.09897148097207,592.5307327135155,323.1606672280404,828.2646566984989,322.53454341997525,1045.3868424530874C321.9084196119101,1262.509028207676,429.89216029496043,1547.314547373536,440.1364030582979,1733.083406964688C450.38064582163537,1918.85226655584,393.35606717638296,2088.8472344941147,384,2160L 1920 2160 L 1920 -1080 Z" fill="url(&quot;#SvgjsLinearGradient1087&quot;)"></path><path d="M576,-1080C565.4216815368643,-1029.6982148826748,512.8087776042689,-900.1470343541463,512.5300892211861,-778.1892892960486C512.2514008381033,-656.231544237951,571.3290642038407,-508.6190918507183,574.3278697015032,-348.2535296514143C577.3266751991657,-187.8879674521103,541.103497614496,23.55643715115272,530.5229222071614,184.00408389977514C519.9423467998269,344.45173064839753,485.91254267908744,490.7188321215551,510.844417257496,614.4323508403203C535.7762918359045,738.1458695590854,678.3624152606767,799.5882486607854,680.1141696776128,926.2851962123661C681.865924094549,1052.9821437639469,528.4031446960281,1221.6055996908922,521.3549437591128,1374.6140361498044C514.3067428221974,1527.6224726087166,628.7174546826395,1713.43815432414,637.8249640561207,1844.3358149658393C646.9324734296019,1975.2334756075386,586.3041606760202,2107.3893024943063,576,2160L 1920 2160 L 1920 -1080 Z" fill="url(&quot;#SvgjsLinearGradient1088&quot;)"></path><path d="M768,-1080C759.074543191673,-989.0980107451325,703.9887913117346,-695.8093281373159,714.4472591500382,-534.5880644707945C724.9057269883418,-373.3668008042731,820.4223491917751,-273.9347535813333,830.7508070298213,-112.67241800087169C841.0792648678676,48.58991757958992,791.8830404341189,222.40374230816929,776.4180061783157,432.9859490119752C760.9529719225126,643.5681557157811,753.2726014179568,959.7866010170028,737.960601495002,1150.820822221964C722.6486015720473,1341.855043426925,679.5394402230872,1410.9947466120689,684.5460066405869,1579.1912762417417C689.5525730580866,1747.3878058714145,754.0910011067645,2063.1985460402902,768,2160L 1920 2160 L 1920 -1080 Z" fill="url(&quot;#SvgjsLinearGradient1089&quot;)"></path><path d="M960,-1080C962.7983739918802,-967.4043208547905,973.2808363050409,-618.8515053137428,976.7902439512811,-404.4259251287432C980.2996515975213,-190.0003449437436,993.8138059979007,-24.716917277250673,981.0564458774411,206.55348110999728C968.2990857569815,437.82387949724523,909.4711996328039,778.62807968568,900.246083228524,983.1964651947446C891.020966824244,1187.7648507038093,915.7467613231823,1237.829871696843,925.7057474517617,1433.9637941643855C935.664733580341,1630.097716631928,954.2842912419603,2038.9939656940642,960,2160L 1920 2160 L 1920 -1080 Z" fill="url(&quot;#SvgjsLinearGradient1090&quot;)"></path><path d="M1152,-1080C1160.1815300281244,-1005.8119563440224,1218.7587012887884,-778.3028445567812,1201.0891801687458,-634.8717380641344C1183.4196590487031,-491.44063157148764,1065.559412338331,-365.3158315873144,1045.9828732797444,-219.41336104411954C1026.4063342211577,-73.51089050092466,1066.946084091598,80.1999069958282,1083.6299458172264,240.5430851950349C1100.3138075428546,400.8862633942416,1152.758859707604,562.4288190972082,1146.0860436335142,742.6457081511207C1139.4132275594245,922.8625972050332,1025.9461088707335,1162.0493843897473,1043.5930493726885,1321.8444195185102C1061.2399898746435,1481.6394546472732,1233.8998615406929,1561.7233221767838,1251.9676866452448,1701.4159189236987C1270.0355117497968,1841.1085156706135,1168.6612811075408,2083.5693198206163,1152,2160L 1920 2160 L 1920 -1080 Z" fill="url(&quot;#SvgjsLinearGradient1091&quot;)"></path><path d="M1344,-1080C1357.7761869687558,-1002.9258750851616,1423.5411120522258,-787.5995818336788,1426.657121812535,-617.5552505109696C1429.7731315728442,-447.51091918826035,1394.6123376279418,-248.89375984161566,1362.6960585618558,-59.734012063744785C1330.7797794957698,129.4257357141261,1223.0041119993516,335.4492714321186,1235.1594474160188,517.4032361562558C1247.314782832686,699.3572008803931,1425.1977884689506,827.2577427601718,1435.6280710618585,1031.9897762810788C1446.0583536547663,1236.7218098019857,1313.012488150442,1557.793733328544,1297.7411429734657,1745.7954372816976C1282.4697977964893,1933.797141234851,1336.2901904955777,2090.965906213616,1344,2160L 1920 2160 L 1920 -1080 Z" fill="url(&quot;#SvgjsLinearGradient1092&quot;)"></path><path d="M1536,-1080C1533.818796986507,-968.4556921406976,1539.5321148940939,-638.8006824642214,1522.9127819190426,-410.73415284418553C1506.2934489439913,-182.6676232241497,1430.4828891823493,56.296814756262364,1436.2840021496922,288.3991777202151C1442.0851151170352,520.5015406841678,1532.2656752842863,781.2209066982522,1557.7194597231,981.880024939531C1583.1732441619138,1182.53914318081,1592.6266187364245,1296.0005579911435,1589.0067087825744,1492.3538871678884C1585.3867988287243,1688.7072163446333,1544.8344514637624,2048.725647861315,1536,2160L 1920 2160 L 1920 -1080 Z" fill="url(&quot;#SvgjsLinearGradient1093&quot;)"></path><path d="M1728,-1080C1744.0838061846634,-924.7884669843628,1845.2899764738447,-436.21720670087086,1824.5028371079813,-148.7308019061765C1803.715697742118,138.75560288851784,1620.533116720071,379.7741609118909,1603.27716380482,644.918428768166C1586.0212108895691,910.0626966244411,1700.1799802506127,1189.6212100261687,1720.967119616476,1442.1348052314743C1741.7542589823395,1694.6484004367799,1726.8278532694126,2040.3558008719124,1728,2160L 1920 2160 L 1920 -1080 Z" fill="url(&quot;#SvgjsLinearGradient1094&quot;)"></path></g><defs><linearGradient x1="0.1" y1="0" x2="0" y2="1" id="SvgjsLinearGradient1085"><stop stop-color="#ffbdde" offset="0"></stop><stop stop-color="#ffbde9" offset="0"></stop></linearGradient><linearGradient x1="0.1" y1="0" x2="0" y2="1" id="SvgjsLinearGradient1086"><stop stop-color="#ffc5e2" offset="0"></stop><stop stop-color="#ffc5ec" offset="0.1"></stop></linearGradient><linearGradient x1="0.1" y1="0" x2="0" y2="1" id="SvgjsLinearGradient1087"><stop stop-color="#ffcee6" offset="0"></stop><stop stop-color="#ffceee" offset="0.2"></stop></linearGradient><linearGradient x1="0.1" y1="0" x2="0" y2="1" id="SvgjsLinearGradient1088"><stop stop-color="#ffd6eb" offset="0"></stop><stop stop-color="#ffd6f2" offset="0.3"></stop></linearGradient><linearGradient x1="0.1" y1="0" x2="0" y2="1" id="SvgjsLinearGradient1089"><stop stop-color="#ffdfef" offset="0"></stop><stop stop-color="#ffdff4" offset="0.4"></stop></linearGradient><linearGradient x1="0.1" y1="0" x2="0" y2="1" id="SvgjsLinearGradient1090"><stop stop-color="#ffe7f3" offset="0"></stop><stop stop-color="#ffe7f7" offset="0.5"></stop></linearGradient><linearGradient x1="0.1" y1="0" x2="0" y2="1" id="SvgjsLinearGradient1091"><stop stop-color="#fff0f7" offset="0"></stop><stop stop-color="#fff0f9" offset="0.6"></stop></linearGradient><linearGradient x1="0.1" y1="0" x2="0" y2="1" id="SvgjsLinearGradient1092"><stop stop-color="#fff8fc" offset="0"></stop><stop stop-color="#fff8fd" offset="0.7"></stop></linearGradient><linearGradient x1="0.1" y1="0" x2="0" y2="1" id="SvgjsLinearGradient1093"><stop stop-color="#ffffff" offset="0"></stop><stop stop-color="#ffffff" offset="0.8"></stop></linearGradient><linearGradient x1="0.1" y1="0" x2="0" y2="1" id="SvgjsLinearGradient1094"><stop stop-color="#ffffff" offset="0"></stop><stop stop-color="#ffffff" offset="0.9"></stop></linearGradient></defs></svg>